<?xml version="1.0" encoding="UTF-8"?>
<svg id="Camada_1" data-name="Camada 1" xmlns="http://www.w3.org/2000/svg" viewBox="0 0 400 120">
  <defs>
    <style>
      .cls-1, .cls-2 {
        fill: #fff;
      }

      .cls-1, .cls-3 {
        stroke: #fff;
      }

      .cls-1, .cls-3, .cls-4 {
        stroke-miterlimit: 10;
      }

      .cls-3, .cls-4 {
        fill: none;
      }

      .cls-4 {
        stroke: #e30613;
      }
    </style>
  </defs>
  <g>
    <line class="cls-4" x1="123.56" y1="60" x2="138.22" y2="74.66"/>
    <line class="cls-3" x1="123.56" y1="15.4" x2="123.56" y2="9.91"/>
    <line class="cls-3" x1="155.1" y1="28.46" x2="158.98" y2="24.58"/>
    <line class="cls-3" x1="168.16" y1="60" x2="173.65" y2="60"/>
    <line class="cls-3" x1="155.1" y1="91.54" x2="158.98" y2="95.42"/>
    <line class="cls-3" x1="123.56" y1="104.6" x2="123.56" y2="110.09"/>
    <line class="cls-3" x1="92.03" y1="91.54" x2="88.14" y2="95.42"/>
    <line class="cls-3" x1="78.97" y1="60" x2="73.47" y2="60"/>
    <line class="cls-3" x1="92.03" y1="28.46" x2="88.14" y2="24.58"/>
    <circle class="cls-3" cx="123.56" cy="60" r="51.39"/>
    <circle class="cls-2" cx="123.56" cy="60" r="3.84"/>
    <polyline class="cls-3" points="123.56 24.58 123.56 60 155.1 60"/>
  </g>
  <g>
    <path class="cls-1" d="M225.37,29.29l.63,9.32h-.63c-.84-2.79-2.03-4.8-3.58-6.03s-3.41-1.84-5.58-1.84c-1.82,0-3.47.46-4.93,1.39-1.47.92-2.63,2.4-3.47,4.42-.84,2.02-1.26,4.54-1.26,7.54,0,2.48.4,4.63,1.19,6.45s1.99,3.22,3.59,4.19c1.6.97,3.42,1.46,5.47,1.46,1.78,0,3.35-.38,4.71-1.14s2.86-2.28,4.49-4.54l.63.4c-1.38,2.44-2.98,4.23-4.81,5.36s-4.01,1.7-6.53,1.7c-4.54,0-8.06-1.69-10.56-5.06-1.86-2.51-2.79-5.46-2.79-8.86,0-2.74.61-5.25,1.84-7.54s2.92-4.07,5.07-5.33,4.5-1.89,7.05-1.89c1.98,0,3.94.49,5.87,1.46.57.3.97.44,1.21.44.36,0,.68-.13.95-.38.35-.36.6-.87.75-1.52h.71Z"/>
    <path class="cls-1" d="M239.85,54.67c-1.9,1.47-3.09,2.32-3.58,2.55-.73.34-1.5.51-2.33.51-1.28,0-2.34-.44-3.17-1.31s-1.24-2.03-1.24-3.46c0-.9.2-1.69.61-2.35.55-.92,1.51-1.78,2.88-2.59s3.64-1.79,6.83-2.95v-.73c0-1.85-.29-3.11-.88-3.8s-1.44-1.03-2.56-1.03c-.85,0-1.52.23-2.02.69-.51.46-.77.98-.77,1.58l.04,1.17c0,.62-.16,1.1-.48,1.44s-.73.51-1.24.51-.91-.18-1.22-.53-.48-.83-.48-1.44c0-1.16.59-2.22,1.78-3.2s2.85-1.46,5-1.46c1.64,0,2.99.28,4.05.83.8.42,1.38,1.07,1.76,1.96.24.58.36,1.77.36,3.56v6.29c0,1.77.03,2.85.1,3.25s.18.66.33.8.33.2.54.2c.22,0,.4-.05.57-.14.28-.18.83-.67,1.64-1.48v1.13c-1.51,2.02-2.95,3.03-4.33,3.03-.66,0-1.19-.23-1.58-.69s-.59-1.24-.61-2.35ZM239.85,53.36v-7.06c-2.04.81-3.35,1.38-3.94,1.72-1.07.59-1.83,1.21-2.29,1.86s-.69,1.36-.69,2.12c0,.97.29,1.78.87,2.42s1.25.96,2,.96c1.02,0,2.37-.67,4.05-2.02ZM241.85,29.23l-5.97,6.98h-.69l2.12-6.98h4.53Z"/>
    <path class="cls-1" d="M254.11,28.58v24.57c0,1.16.08,1.93.25,2.31s.43.66.78.86,1,.29,1.96.29v.73h-9.08v-.73c.85,0,1.43-.09,1.74-.26s.55-.47.73-.87.26-1.18.26-2.33v-16.83c0-2.09-.05-3.37-.14-3.85s-.25-.81-.46-.98-.48-.26-.8-.26c-.35,0-.8.11-1.33.32l-.34-.71,5.52-2.27h.91Z"/>
    <path class="cls-1" d="M274.98,50.3c-.5,2.44-1.48,4.32-2.93,5.63s-3.07,1.97-4.83,1.97c-2.1,0-3.94-.88-5.5-2.65s-2.35-4.15-2.35-7.16.87-5.28,2.6-7.1c1.73-1.82,3.81-2.73,6.24-2.73,1.82,0,3.32.48,4.49,1.45,1.17.96,1.76,1.97,1.76,3,0,.51-.17.93-.5,1.24s-.79.48-1.39.48c-.8,0-1.4-.26-1.8-.77-.23-.28-.38-.82-.46-1.62s-.35-1.4-.82-1.82c-.47-.4-1.13-.61-1.96-.61-1.35,0-2.43.5-3.26,1.5-1.09,1.32-1.64,3.07-1.64,5.24s.54,4.16,1.63,5.86,2.55,2.54,4.4,2.54c1.32,0,2.51-.45,3.56-1.36.74-.62,1.46-1.75,2.16-3.38l.59.28Z"/>
    <path class="cls-1" d="M293.87,38.82v11.22c0,2.14.05,3.46.15,3.93s.26.81.49,1,.48.28.78.28c.42,0,.89-.11,1.42-.34l.28.71-5.54,2.29h-.91v-3.92c-1.59,1.73-2.8,2.81-3.64,3.26s-1.72.67-2.65.67c-1.04,0-1.94-.3-2.7-.9s-1.29-1.37-1.59-2.32-.44-2.28-.44-4v-8.27c0-.88-.09-1.48-.28-1.82s-.47-.6-.84-.78-1.04-.27-2.01-.25v-.75h6.49v12.4c0,1.73.3,2.86.9,3.4s1.32.81,2.17.81c.58,0,1.24-.18,1.97-.55s1.61-1.06,2.62-2.08v-10.5c0-1.05-.19-1.76-.58-2.13s-1.18-.57-2.4-.6v-.75h6.31Z"/>
    <path class="cls-1" d="M304.71,28.58v24.57c0,1.16.08,1.93.25,2.31s.43.66.78.86,1,.29,1.96.29v.73h-9.08v-.73c.85,0,1.43-.09,1.74-.26s.55-.47.73-.87.26-1.18.26-2.33v-16.83c0-2.09-.05-3.37-.14-3.85s-.25-.81-.46-.98-.48-.26-.8-.26c-.35,0-.8.11-1.33.32l-.34-.71,5.52-2.27h.91Z"/>
    <path class="cls-1" d="M318.91,38.27c2.8,0,5.06,1.07,6.76,3.2,1.44,1.82,2.16,3.91,2.16,6.27,0,1.66-.4,3.34-1.19,5.04s-1.89,2.98-3.29,3.84-2.95,1.29-4.66,1.29c-2.79,0-5.01-1.11-6.65-3.34-1.39-1.87-2.08-3.98-2.08-6.31,0-1.7.42-3.39,1.26-5.07s1.95-2.92,3.33-3.72,2.83-1.2,4.37-1.2ZM318.28,39.59c-.71,0-1.43.21-2.15.64s-1.3,1.17-1.75,2.23-.67,2.43-.67,4.11c0,2.7.54,5.02,1.61,6.98s2.48,2.93,4.24,2.93c1.31,0,2.39-.54,3.24-1.62s1.27-2.93,1.27-5.56c0-3.29-.71-5.88-2.12-7.77-.96-1.29-2.18-1.94-3.66-1.94Z"/>
    <path class="cls-1" d="M210.04,76.15h13.24v-7.85c0-1.4-.09-2.33-.27-2.77-.14-.34-.43-.63-.88-.87-.6-.32-1.24-.49-1.91-.49h-1.01v-.75h12.19v.75h-1.01c-.67,0-1.31.16-1.91.47-.45.22-.75.54-.91.98s-.24,1.33-.24,2.68v17.7c0,1.39.09,2.31.27,2.75.14.34.43.63.86.87.62.32,1.26.49,1.93.49h1.01v.75h-12.19v-.75h1.01c1.16,0,2.01-.33,2.54-.99.35-.43.53-1.47.53-3.11v-8.35h-13.24v8.35c0,1.39.09,2.31.27,2.75.14.34.43.63.88.87.6.32,1.24.49,1.91.49h1.03v.75h-12.21v-.75h1.01c1.18,0,2.03-.33,2.56-.99.34-.43.5-1.47.5-3.11v-17.7c0-1.4-.09-2.33-.27-2.77-.14-.34-.43-.63-.86-.87-.62-.32-1.26-.49-1.93-.49h-1.01v-.75h12.21v.75h-1.03c-.67,0-1.31.16-1.91.47-.43.22-.74.54-.9.98s-.25,1.33-.25,2.68v7.85Z"/>
    <path class="cls-1" d="M243.04,71.78c2.91,0,5.25,1.07,7.02,3.2,1.5,1.82,2.25,3.91,2.25,6.27,0,1.66-.41,3.34-1.24,5.04-.83,1.7-1.97,2.98-3.42,3.84-1.45.86-3.07,1.29-4.84,1.29-2.9,0-5.21-1.11-6.92-3.34-1.44-1.87-2.16-3.98-2.16-6.31,0-1.7.44-3.39,1.31-5.07s2.03-2.92,3.46-3.72,2.94-1.2,4.54-1.2ZM242.39,73.09c-.74,0-1.49.21-2.24.64s-1.36,1.17-1.82,2.23-.69,2.43-.69,4.11c0,2.7.56,5.02,1.67,6.98,1.11,1.96,2.58,2.93,4.4,2.93,1.36,0,2.48-.54,3.36-1.62s1.32-2.93,1.32-5.56c0-3.29-.74-5.88-2.21-7.77-.99-1.29-2.26-1.94-3.8-1.94Z"/>
    <path class="cls-1" d="M260.78,71.78v4.17c1.61-2.78,3.26-4.17,4.96-4.17.77,0,1.41.23,1.91.68s.76.97.76,1.57c0,.53-.18.97-.55,1.33s-.8.55-1.3.55-1.04-.23-1.65-.7-1.06-.7-1.36-.7c-.25,0-.53.13-.82.4-.63.55-1.28,1.46-1.95,2.73v8.88c0,1.02.13,1.8.4,2.33.18.36.5.67.97.91s1.13.36,2,.36v.73h-9.86v-.73c.98,0,1.71-.15,2.19-.44.35-.22.6-.56.74-1.03.07-.23.11-.88.11-1.96v-7.18c0-2.16-.05-3.44-.14-3.85s-.26-.71-.5-.9-.55-.28-.91-.28c-.43,0-.92.1-1.47.3l-.21-.73,5.82-2.27h.88Z"/>
    <path class="cls-1" d="M276.13,71.78v14.89c0,1.16.09,1.93.26,2.32s.43.67.78.86.97.28,1.88.28v.73h-9.35v-.73c.94,0,1.57-.09,1.89-.26s.58-.47.77-.87.28-1.18.28-2.33v-7.14c0-2.01-.06-3.31-.19-3.9-.1-.43-.25-.73-.46-.9s-.5-.25-.86-.25c-.39,0-.87.1-1.43.3l-.29-.73,5.8-2.27h.92ZM276.32,62.09c.57,0,1.05.2,1.45.6s.6.88.6,1.45-.2,1.05-.6,1.46-.88.61-1.45.61-1.05-.2-1.46-.61-.61-.89-.61-1.46.2-1.05.6-1.45.89-.6,1.47-.6Z"/>
    <path class="cls-1" d="M293.89,71.78v6.31h-.69c-.53-1.98-1.22-3.33-2.05-4.05s-1.9-1.07-3.18-1.07c-.98,0-1.77.25-2.38.75s-.9,1.05-.9,1.66c0,.76.22,1.4.67,1.94.43.55,1.32,1.14,2.65,1.76l3.07,1.44c2.84,1.33,4.27,3.09,4.27,5.28,0,1.69-.66,3.04-1.99,4.08s-2.81,1.55-4.45,1.55c-1.18,0-2.52-.2-4.04-.61-.46-.13-.84-.2-1.13-.2-.32,0-.57.18-.76.53h-.69v-6.61h.69c.39,1.89,1.14,3.31,2.25,4.27,1.11.96,2.35,1.44,3.72,1.44.97,0,1.76-.27,2.36-.82s.91-1.2.91-1.97c0-.93-.34-1.71-1.02-2.35s-2.04-1.44-4.07-2.41-3.36-1.85-3.99-2.63c-.63-.77-.95-1.74-.95-2.91,0-1.52.54-2.8,1.63-3.82s2.49-1.54,4.21-1.54c.76,0,1.67.16,2.75.47.71.2,1.19.3,1.43.3.22,0,.4-.05.53-.14s.27-.3.44-.63h.69Z"/>
    <path class="cls-1" d="M303.79,66.24v6.09h4.5v1.42h-4.5v12.01c0,1.2.18,2.01.54,2.43s.82.63,1.38.63c.46,0,.91-.14,1.35-.41s.77-.68,1.01-1.22h.82c-.49,1.32-1.18,2.32-2.08,2.98-.9.67-1.82,1-2.77,1-.64,0-1.28-.17-1.89-.52s-1.07-.84-1.37-1.48-.44-1.63-.44-2.96v-12.46h-3.05v-.67c.77-.3,1.56-.8,2.36-1.51s1.52-1.55,2.15-2.52c.32-.51.77-1.45,1.35-2.81h.65Z"/>
    <path class="cls-1" d="M321.06,88.18c-1.98,1.47-3.22,2.32-3.72,2.55-.76.34-1.56.51-2.42.51-1.33,0-2.43-.44-3.29-1.31s-1.29-2.03-1.29-3.46c0-.9.21-1.69.63-2.35.57-.92,1.57-1.78,3-2.59s3.79-1.79,7.09-2.95v-.73c0-1.85-.3-3.11-.91-3.8s-1.5-1.03-2.66-1.03c-.88,0-1.58.23-2.1.69-.53.46-.8.98-.8,1.58l.04,1.17c0,.62-.16,1.1-.49,1.44s-.76.51-1.29.51-.94-.18-1.27-.53-.49-.83-.49-1.44c0-1.16.62-2.22,1.85-3.2s2.96-1.46,5.19-1.46c1.71,0,3.11.28,4.2.83.83.42,1.44,1.07,1.83,1.96.25.58.38,1.77.38,3.56v6.29c0,1.77.04,2.85.11,3.25s.19.66.35.8.35.2.56.2c.22,0,.42-.05.59-.14.29-.18.86-.67,1.7-1.48v1.13c-1.57,2.02-3.07,3.03-4.5,3.03-.69,0-1.23-.23-1.64-.69s-.62-1.24-.63-2.35ZM321.06,86.87v-7.06c-2.12.81-3.48,1.38-4.1,1.72-1.11.59-1.9,1.21-2.38,1.86s-.71,1.36-.71,2.12c0,.97.3,1.78.9,2.42s1.3.96,2.08.96c1.06,0,2.47-.67,4.2-2.02Z"/>
  </g>
</svg>